STARTFONT 2.1
COMMENT This font was automatically resized by bdfresize-1.5
COMMENT   mag_x = 2/1, mag_y = 2/1, blackness = 1
COMMENT Used arabic glyphs from acon. Although not as sophisticated as the glyphs
COMMENT that were in the original u_vga16, yet they are clearer (less eye fatiguing)
FONT -Bolkhov-VGA-Medium-R-Normal--32-320-75-75-C-160-iso10646-1
SIZE 32 75 75
FONTBOUNDINGBOX 16 32 0 -8
STARTPROPERTIES 24
FOUNDRY "Bolkhov"
FAMILY_NAME "VGA"
WEIGHT_NAME "Medium"
SLANT "R"
SETWIDTH_NAME "Normal"
ADD_STYLE_NAME ""
PIXEL_SIZE 32
POINT_SIZE 320
RESOLUTION_X 75
RESOLUTION_Y 75
SPACING "C"
AVERAGE_WIDTH 160
CHARSET_REGISTRY "iso10646"
CHARSET_ENCODING "1"
CAP_HEIGHT 10
X_HEIGHT 7
FONT_ASCENT 24
FONT_DESCENT 8
FACE_NAME "Vga Unicode"
COPYRIGHT "Copyright (c) 2000 Dmitry Bolkhovityanov, bolkhov@inp.nsk.su"
HOMEPAGE "http://www.inp.nsk.su/~bolkhov/files/fonts/univga/"
NOTICE "VGA is a trademark of IBM Corporation."
DEFAULT_CHAR 0
_GBDFED_INFO "Edited with gbdfed 1.5."
ENDPROPERTIES
CHARS 183
STARTCHAR bar
ENCODING 124
SWIDTH 960 0
DWIDTH 16 0
BBX 16 32 0 -8
BITMAP
0000
0000
0000
0000
03C0
03C0
03C0
03C0
03C0
03C0
03C0
03C0
03C0
03C0
03C0
03C0
03C0
03C0
03C0
03C0
03C0
03C0
03C0
03C0
0000
0000
0000
0000
0000
0000
0000
0000
ENDCHAR
STARTCHAR C00ba
ENCODING 1548
SWIDTH 960 0
DWIDTH 16 0
BBX 16 32 0 -8
BITMAP
0000
0000
0000
0000
0000
0000
0000
0000
00C0
00C0
0300
0300
0300
0300
03C0
03C0
03F0
03F0
00C0
00C0
0000
0000
0000
0000
0000
0000
0000
0000
0000
0000
0000
0000
ENDCHAR
STARTCHAR C00bb
ENCODING 1563
SWIDTH 960 0
DWIDTH 16 0
BBX 16 32 0 -8
BITMAP
0000
0000
0000
0000
0030
0030
00C0
00C0
0300
0300
0300
0300
03C0
03C0
03F0
03F0
00C0
00C0
0000
0000
00C0
00C0
03F0
03F0
00C0
00C0
0000
0000
0000
0000
0000
0000
ENDCHAR
STARTCHAR C00bf
ENCODING 1567
SWIDTH 960 0
DWIDTH 16 0
BBX 16 32 0 -8
BITMAP
0000
0000
03F0
03F0
0F3C
0F3C
3C0F
3C0F
3C0C
3C0C
0C00
0C00
0300
0300
00C0
00C0
00C0
00C0
0000
0000
00C0
00C0
03F0
03F0
00C0
00C0
0000
0000
0000
0000
0000
0000
ENDCHAR
STARTCHAR C00c1
ENCODING 1569
SWIDTH 960 0
DWIDTH 16 0
BBX 16 32 0 -8
BITMAP
0000
0000
0000
0000
0000
0000
0000
0000
0000
0000
00F0
00F0
03FC
03FC
0F00
0F00
03FC
03FC
03F0
03F0
0C00
0C00
0000
0000
0000
0000
0000
0000
0000
0000
0000
0000
ENDCHAR
STARTCHAR C00c2
ENCODING 1570
SWIDTH 960 0
DWIDTH 16 0
BBX 16 32 0 -8
BITMAP
0FFF
0FFF
3000
3000
00C0
00C0
00C0
00C0
00C0
00C0
00C0
00C0
00C0
00C0
00C0
00C0
00C0
00C0
00C0
00C0
0000
0000
0000
0000
0000
0000
0000
0000
0000
0000
0000
0000
ENDCHAR
STARTCHAR C00c3
ENCODING 1571
SWIDTH 960 0
DWIDTH 16 0
BBX 16 32 0 -8
BITMAP
03C0
03C0
0C00
0C00
03F0
03F0
0C00
0C00
00C0
00C0
00C0
00C0
00C0
00C0
00C0
00C0
00C0
00C0
00C0
00C0
00C0
00C0
0000
0000
0000
0000
0000
0000
0000
0000
0000
0000
ENDCHAR
STARTCHAR C00c4
ENCODING 1572
SWIDTH 960 0
DWIDTH 16 0
BBX 16 32 0 -8
BITMAP
0000
0000
03C0
03C0
0C00
0C00
03C0
03C0
0C00
0C00
00F0
00F0
03FC
03FC
0303
0303
03FF
03FF
00FF
00FF
000C
000C
3FF0
3FF0
0FC0
0FC0
0000
0000
0000
0000
0000
0000
ENDCHAR
STARTCHAR C00c5
ENCODING 1573
SWIDTH 960 0
DWIDTH 16 0
BBX 16 32 0 -8
BITMAP
00C0
00C0
03C0
03C0
00F0
00F0
00C0
00C0
00C0
00C0
00C0
00C0
00C0
00C0
00C0
00C0
0000
0000
00F0
00F0
0300
0300
00F0
00F0
0300
0300
0000
0000
0000
0000
0000
0000
ENDCHAR
STARTCHAR C00c6
ENCODING 1574
SWIDTH 960 0
DWIDTH 16 0
BBX 16 32 0 -8
BITMAP
0000
0000
0000
0000
3C00
3C00
C000
C000
3C00
3C00
C0F0
C0F0
03FC
03FC
030F
030F
C0C3
C0C3
C030
C030
C030
C030
FFF0
FFF0
3FC0
3FC0
0000
0000
0000
0000
0000
0000
ENDCHAR
STARTCHAR C00c7
ENCODING 1575
SWIDTH 960 0
DWIDTH 16 0
BBX 16 32 0 -8
BITMAP
00C0
00C0
03C0
03C0
00F0
00F0
00C0
00C0
00C0
00C0
00C0
00C0
00C0
00C0
00C0
00C0
00C0
00C0
00C0
00C0
0000
0000
0000
0000
0000
0000
0000
0000
0000
0000
0000
0000
ENDCHAR
STARTCHAR C00c8
ENCODING 1576
SWIDTH 960 0
DWIDTH 16 0
BBX 16 32 0 -8
BITMAP
0000
0000
0000
0000
0000
0000
0000
0000
0000
0000
C003
C003
C003
C003
C003
C003
FFFF
FFFF
3FFC
3FFC
0000
0000
03C0
03C0
0000
0000
0000
0000
0000
0000
0000
0000
ENDCHAR
STARTCHAR C00c9
ENCODING 1577
SWIDTH 960 0
DWIDTH 16 0
BBX 16 32 0 -8
BITMAP
0000
0000
0000
0000
0F0F
0F0F
0000
0000
003C
003C
00FF
00FF
0303
0303
0303
0303
03FF
03FF
00FC
00FC
0000
0000
0000
0000
0000
0000
0000
0000
0000
0000
0000
0000
ENDCHAR
STARTCHAR C00ca
ENCODING 1578
SWIDTH 960 0
DWIDTH 16 0
BBX 16 32 0 -8
BITMAP
0000
0000
0000
0000
0000
0000
0F3C
0F3C
0000
0000
C003
C003
C003
C003
C003
C003
FFFF
FFFF
3FFC
3FFC
0000
0000
0000
0000
0000
0000
0000
0000
0000
0000
0000
0000
ENDCHAR
STARTCHAR C00cb
ENCODING 1579
SWIDTH 960 0
DWIDTH 16 0
BBX 16 32 0 -8
BITMAP
0000
0000
0000
0000
03C0
03C0
3C3C
3C3C
0000
0000
C003
C003
C003
C003
C003
C003
FFFF
FFFF
3FFC
3FFC
0000
0000
0000
0000
0000
0000
0000
0000
0000
0000
0000
0000
ENDCHAR
STARTCHAR C00cc
ENCODING 1580
SWIDTH 960 0
DWIDTH 16 0
BBX 16 32 0 -8
BITMAP
0000
0000
0000
0000
0000
0000
0000
0000
0000
0000
0FC0
0FC0
3FFF
3FFF
00FF
00FF
0300
0300
0C00
0C00
303C
303C
3000
3000
0FFF
0FFF
03FC
03FC
0000
0000
0000
0000
ENDCHAR
STARTCHAR C00cd
ENCODING 1581
SWIDTH 960 0
DWIDTH 16 0
BBX 16 32 0 -8
BITMAP
0000
0000
0000
0000
0000
0000
0000
0000
0000
0000
0FC0
0FC0
3FFF
3FFF
00FF
00FF
0300
0300
0C00
0C00
3000
3000
3000
3000
0FFF
0FFF
03FC
03FC
0000
0000
0000
0000
ENDCHAR
STARTCHAR C00ce
ENCODING 1582
SWIDTH 960 0
DWIDTH 16 0
BBX 16 32 0 -8
BITMAP
0000
0000
0000
0000
0000
0000
03C0
03C0
0000
0000
0FC0
0FC0
3FFF
3FFF
00FF
00FF
0300
0300
0C00
0C00
3000
3000
3000
3000
0FFF
0FFF
03FC
03FC
0000
0000
0000
0000
ENDCHAR
STARTCHAR C00cf
ENCODING 1583
SWIDTH 960 0
DWIDTH 16 0
BBX 16 32 0 -8
BITMAP
0000
0000
0000
0000
0000
0000
0000
0000
00F0
00F0
03FC
03FC
000F
000F
0003
0003
0C0F
0C0F
3FFC
3FFC
0FF0
0FF0
0000
0000
0000
0000
0000
0000
0000
0000
0000
0000
ENDCHAR
STARTCHAR C00d0
ENCODING 1584
SWIDTH 960 0
DWIDTH 16 0
BBX 16 32 0 -8
BITMAP
0000
0000
0000
0000
00F0
00F0
0000
0000
00F0
00F0
03FC
03FC
000F
000F
0003
0003
0C0F
0C0F
3FFC
3FFC
0FF0
0FF0
0000
0000
0000
0000
0000
0000
0000
0000
0000
0000
ENDCHAR
STARTCHAR C00d1
ENCODING 1585
SWIDTH 960 0
DWIDTH 16 0
BBX 16 32 0 -8
BITMAP
0000
0000
0000
0000
0000
0000
0000
0000
0000
0000
000C
000C
003F
003F
000F
000F
0003
0003
0003
0003
000C
000C
3FF0
3FF0
0FC0
0FC0
0000
0000
0000
0000
0000
0000
ENDCHAR
STARTCHAR C00d2
ENCODING 1586
SWIDTH 960 0
DWIDTH 16 0
BBX 16 32 0 -8
BITMAP
0000
0000
0000
0000
0000
0000
003C
003C
0000
0000
000C
000C
003F
003F
000F
000F
0003
0003
0003
0003
000C
000C
3FF0
3FF0
0FC0
0FC0
0000
0000
0000
0000
0000
0000
ENDCHAR
STARTCHAR C00d3
ENCODING 1587
SWIDTH 960 0
DWIDTH 16 0
BBX 16 32 0 -8
BITMAP
0000
0000
0000
0000
0000
0000
0000
0000
0000
0000
0000
0000
0303
0303
0333
0333
03FF
03FF
00CC
00CC
C030
C030
C030
C030
FFF0
FFF0
3FC0
3FC0
0000
0000
0000
0000
ENDCHAR
STARTCHAR C00d4
ENCODING 1588
SWIDTH 960 0
DWIDTH 16 0
BBX 16 32 0 -8
BITMAP
0000
0000
0000
0000
0000
0000
0030
0030
0303
0303
0000
0000
0303
0303
0333
0333
03FF
03FF
00CC
00CC
C030
C030
C030
C030
FFF0
FFF0
3FC0
3FC0
0000
0000
0000
0000
ENDCHAR
STARTCHAR C00d5
ENCODING 1589
SWIDTH 960 0
DWIDTH 16 0
BBX 16 32 0 -8
BITMAP
0000
0000
0000
0000
0000
0000
0000
0000
0000
0000
00FC
00FC
0303
0303
0FFF
0FFF
03FC
03FC
00C0
00C0
C030
C030
C030
C030
FFF0
FFF0
3FC0
3FC0
0000
0000
0000
0000
ENDCHAR
STARTCHAR C00d6
ENCODING 1590
SWIDTH 960 0
DWIDTH 16 0
BBX 16 32 0 -8
BITMAP
0000
0000
0000
0000
0000
0000
003C
003C
0000
0000
00FC
00FC
0303
0303
0FFF
0FFF
03FC
03FC
00C0
00C0
C030
C030
C030
C030
FFF0
FFF0
3FC0
3FC0
0000
0000
0000
0000
ENDCHAR
STARTCHAR C00d7
ENCODING 1591
SWIDTH 960 0
DWIDTH 16 0
BBX 16 32 0 -8
BITMAP
0300
0300
0F00
0F00
03C0
03C0
0300
0300
030C
030C
033F
033F
03CF
03CF
0303
0303
FFFC
FFFC
FFF0
FFF0
0000
0000
0000
0000
0000
0000
0000
0000
0000
0000
0000
0000
ENDCHAR
STARTCHAR C00d8
ENCODING 1592
SWIDTH 960 0
DWIDTH 16 0
BBX 16 32 0 -8
BITMAP
0300
0300
0F0F
0F0F
03C0
03C0
0300
0300
030C
030C
033F
033F
03CF
03CF
0303
0303
FFFC
FFFC
FFF0
FFF0
0000
0000
0000
0000
0000
0000
0000
0000
0000
0000
0000
0000
ENDCHAR
STARTCHAR C00d9
ENCODING 1593
SWIDTH 960 0
DWIDTH 16 0
BBX 16 32 0 -8
BITMAP
0000
0000
0000
0000
0000
0000
0F00
0F00
3FC0
3FC0
3000
3000
3000
3000
0FC0
0FC0
3000
3000
C000
C000
C000
C000
C000
C000
3FFC
3FFC
0FF0
0FF0
0000
0000
0000
0000
ENDCHAR
STARTCHAR C00da
ENCODING 1594
SWIDTH 960 0
DWIDTH 16 0
BBX 16 32 0 -8
BITMAP
0000
0000
0F00
0F00
0000
0000
0F00
0F00
3FC0
3FC0
3000
3000
3000
3000
0FC0
0FC0
3000
3000
C000
C000
C000
C000
C000
C000
3FFC
3FFC
0FF0
0FF0
0000
0000
0000
0000
ENDCHAR
STARTCHAR C00e0
ENCODING 1600
SWIDTH 960 0
DWIDTH 16 0
BBX 16 32 0 -8
BITMAP
0000
0000
0000
0000
0000
0000
0000
0000
0000
0000
0000
0000
0000
0000
0000
0000
FFFF
FFFF
FFFF
FFFF
0000
0000
0000
0000
0000
0000
0000
0000
0000
0000
0000
0000
ENDCHAR
STARTCHAR C00e1
ENCODING 1601
SWIDTH 960 0
DWIDTH 16 0
BBX 16 32 0 -8
BITMAP
0000
0000
0000
0000
003C
003C
0000
0000
000C
000C
003F
003F
0033
0033
C03F
C03F
C003
C003
FFFF
FFFF
3FFC
3FFC
0000
0000
0000
0000
0000
0000
0000
0000
0000
0000
ENDCHAR
STARTCHAR C00e2
ENCODING 1602
SWIDTH 960 0
DWIDTH 16 0
BBX 16 32 0 -8
BITMAP
0000
0000
0000
0000
03CF
03CF
0000
0000
0030
0030
00FC
00FC
00C3
00C3
00CF
00CF
003F
003F
3003
3003
300C
300C
3FF0
3FF0
0FC0
0FC0
0000
0000
0000
0000
0000
0000
ENDCHAR
STARTCHAR C00e3
ENCODING 1603
SWIDTH 960 0
DWIDTH 16 0
BBX 16 32 0 -8
BITMAP
0003
0003
000F
000F
0003
0003
03C3
03C3
0C03
0C03
03C3
03C3
0C03
0C03
0003
0003
C003
C003
C003
C003
FFFF
FFFF
3FFC
3FFC
0000
0000
0000
0000
0000
0000
0000
0000
ENDCHAR
STARTCHAR C00e4
ENCODING 1604
SWIDTH 960 0
DWIDTH 16 0
BBX 16 32 0 -8
BITMAP
0003
0003
000F
000F
000F
000F
0003
0003
0003
0003
0003
0003
0003
0003
0003
0003
C003
C003
C003
C003
FFFF
FFFF
3FFC
3FFC
0000
0000
0000
0000
0000
0000
0000
0000
ENDCHAR
STARTCHAR C00e5
ENCODING 1605
SWIDTH 960 0
DWIDTH 16 0
BBX 16 32 0 -8
BITMAP
0000
0000
0000
0000
0000
0000
0000
0000
00F0
00F0
033C
033C
003F
003F
03FF
03FF
0C0C
0C0C
0C00
0C00
0C00
0C00
0C00
0C00
0C00
0C00
0C00
0C00
0000
0000
0000
0000
ENDCHAR
STARTCHAR C00e6
ENCODING 1606
SWIDTH 960 0
DWIDTH 16 0
BBX 16 32 0 -8
BITMAP
0000
0000
0000
0000
0000
0000
03C0
03C0
0000
0000
0003
0003
000F
000F
0C0F
0C0F
3003
3003
3003
3003
3003
3003
3FFC
3FFC
0FF0
0FF0
0000
0000
0000
0000
0000
0000
ENDCHAR
STARTCHAR C00fd
ENCODING 1607
SWIDTH 960 0
DWIDTH 16 0
BBX 16 32 0 -8
BITMAP
0000
0000
0000
0000
0000
0000
0FC0
0FC0
03F0
03F0
00CC
00CC
0333
0333
0333
0333
FFC3
FFC3
FCFF
FCFF
003C
003C
0000
0000
0000
0000
0000
0000
0000
0000
0000
0000
ENDCHAR
STARTCHAR C00e8
ENCODING 1608
SWIDTH 960 0
DWIDTH 16 0
BBX 16 32 0 -8
BITMAP
0000
0000
0000
0000
0000
0000
0000
0000
0000
0000
00F0
00F0
03FC
03FC
0303
0303
03FF
03FF
00FF
00FF
000C
000C
3FF0
3FF0
0FC0
0FC0
0000
0000
0000
0000
0000
0000
ENDCHAR
STARTCHAR C00e9
ENCODING 1609
SWIDTH 960 0
DWIDTH 16 0
BBX 16 32 0 -8
BITMAP
0000
0000
0000
0000
0000
0000
0000
0000
000F
000F
003F
003F
00C0
00C0
00FC
00FC
303F
303F
3003
3003
3003
3003
3FFC
3FFC
0FF0
0FF0
0000
0000
0000
0000
0000
0000
ENDCHAR
STARTCHAR C00ea
ENCODING 1610
SWIDTH 960 0
DWIDTH 16 0
BBX 16 32 0 -8
BITMAP
0000
0000
0000
0000
0000
0000
000F
000F
003F
003F
00C0
00C0
00FC
00FC
303F
303F
3003
3003
3003
3003
3FFC
3FFC
0FF0
0FF0
0000
0000
0F3C
0F3C
0000
0000
0000
0000
ENDCHAR
STARTCHAR C00f9
ENCODING 64400
SWIDTH 960 0
DWIDTH 16 0
BBX 16 32 0 -8
BITMAP
0003
0003
000F
000F
0030
0030
00C0
00C0
0300
0300
0300
0300
00FC
00FC
0003
0003
FFFF
FFFF
FFFC
FFFC
0000
0000
0000
0000
0000
0000
0000
0000
0000
0000
0000
0000
ENDCHAR
STARTCHAR C00f9
ENCODING 64401
SWIDTH 960 0
DWIDTH 16 0
BBX 16 32 0 -8
BITMAP
0003
0003
000F
000F
0030
0030
00C0
00C0
0300
0300
0300
0300
00FC
00FC
0003
0003
FFFF
FFFF
FFFC
FFFC
0000
0000
0000
0000
0000
0000
0000
0000
0000
0000
0000
0000
ENDCHAR
STARTCHAR C00e9
ENCODING 64508
SWIDTH 960 0
DWIDTH 16 0
BBX 16 32 0 -8
BITMAP
0000
0000
0000
0000
0000
0000
0000
0000
000F
000F
003F
003F
00C0
00C0
00FC
00FC
303F
303F
3003
3003
3003
3003
3FFC
3FFC
0FF0
0FF0
0000
0000
0000
0000
0000
0000
ENDCHAR
STARTCHAR C008f
ENCODING 64509
SWIDTH 960 0
DWIDTH 16 0
BBX 16 32 0 -8
BITMAP
0000
0000
0000
0000
0000
0000
0000
0000
0000
0000
0000
0000
00F0
00F0
03FC
03FC
030F
030F
C0C3
C0C3
C030
C030
C030
C030
FFF0
FFF0
3FC0
3FC0
0000
0000
0000
0000
ENDCHAR
STARTCHAR C00fe
ENCODING 64510
SWIDTH 960 0
DWIDTH 16 0
BBX 16 32 0 -8
BITMAP
0000
0000
0000
0000
0000
0000
0000
0000
0000
0000
0003
0003
000F
000F
000F
000F
FFFC
FFFC
FFF0
FFF0
0000
0000
0F0F
0F0F
0000
0000
0000
0000
0000
0000
0000
0000
ENDCHAR
STARTCHAR C00fe
ENCODING 64511
SWIDTH 960 0
DWIDTH 16 0
BBX 16 32 0 -8
BITMAP
0000
0000
0000
0000
0000
0000
0000
0000
0000
0000
0003
0003
000F
000F
000F
000F
FFFC
FFFC
FFF0
FFF0
0000
0000
0F0F
0F0F
0000
0000
0000
0000
0000
0000
0000
0000
ENDCHAR
STARTCHAR uniFCF2
ENCODING 64754
SWIDTH 960 0
DWIDTH 16 0
BBX 16 32 0 -8
BITMAP
00FC
00FC
FF00
FF00
000C
000C
C30C
C30C
C3F0
C3F0
3C00
3C00
0000
0000
0000
0000
FFFF
FFFF
FFFF
FFFF
0000
0000
0000
0000
0000
0000
0000
0000
0000
0000
0000
0000
ENDCHAR
STARTCHAR uniFCF3
ENCODING 64755
SWIDTH 960 0
DWIDTH 16 0
BBX 16 32 0 -8
BITMAP
03C0
03C0
0C30
0C30
03C0
03C0
3C00
3C00
000C
000C
C30C
C30C
C3F0
C3F0
3C00
3C00
FFFF
FFFF
FFFF
FFFF
0000
0000
0000
0000
0000
0000
0000
0000
0000
0000
0000
0000
ENDCHAR
STARTCHAR uniFCF4
ENCODING 64756
SWIDTH 960 0
DWIDTH 16 0
BBX 16 32 0 -8
BITMAP
000C
000C
030C
030C
C3F0
C3F0
3C00
3C00
00FC
00FC
3F00
3F00
0000
0000
0000
0000
FFFF
FFFF
FFFF
FFFF
0000
0000
0000
0000
0000
0000
0000
0000
0000
0000
0000
0000
ENDCHAR
STARTCHAR uniFD3C
ENCODING 64828
SWIDTH 960 0
DWIDTH 16 0
BBX 16 32 0 -8
BITMAP
0300
0300
0CC0
0CC0
3300
3300
0CC0
0CC0
00C0
00C0
00C0
00C0
00C0
00C0
00C0
00C0
003F
003F
000F
000F
0000
0000
0000
0000
0000
0000
0000
0000
0000
0000
0000
0000
ENDCHAR
STARTCHAR uniFD3D
ENCODING 64829
SWIDTH 960 0
DWIDTH 16 0
BBX 16 32 0 -8
BITMAP
0300
0300
0CC0
0CC0
3300
3300
0C30
0C30
00F0
00F0
003C
003C
0030
0030
0030
0030
0030
0030
0030
0030
0000
0000
0000
0000
0000
0000
0000
0000
0000
0000
0000
0000
ENDCHAR
STARTCHAR uniFE71
ENCODING 65137
SWIDTH 960 0
DWIDTH 16 0
BBX 16 32 0 -8
BITMAP
003C
003C
03C0
03C0
3C00
3C00
003C
003C
03C0
03C0
3C00
3C00
0000
0000
0000
0000
FFFF
FFFF
FFFF
FFFF
0000
0000
0000
0000
0000
0000
0000
0000
0000
0000
0000
0000
ENDCHAR
STARTCHAR uniFE77
ENCODING 65143
SWIDTH 960 0
DWIDTH 16 0
BBX 16 32 0 -8
BITMAP
0000
0000
003C
003C
03C0
03C0
3C00
3C00
0000
0000
0000
0000
0000
0000
0000
0000
FFFF
FFFF
FFFF
FFFF
0000
0000
0000
0000
0000
0000
0000
0000
0000
0000
0000
0000
ENDCHAR
STARTCHAR uniFE79
ENCODING 65145
SWIDTH 960 0
DWIDTH 16 0
BBX 16 32 0 -8
BITMAP
03C0
03C0
0C30
0C30
0330
0330
03C0
03C0
3C00
3C00
0000
0000
0000
0000
0000
0000
FFFF
FFFF
FFFF
FFFF
0000
0000
0000
0000
0000
0000
0000
0000
0000
0000
0000
0000
ENDCHAR
STARTCHAR uniFE7B
ENCODING 65147
SWIDTH 960 0
DWIDTH 16 0
BBX 16 32 0 -8
BITMAP
0000
0000
0000
0000
0000
0000
0000
0000
0000
0000
0000
0000
0000
0000
0000
0000
FFFF
FFFF
FFFF
FFFF
0000
0000
003C
003C
03C0
03C0
3C00
3C00
0000
0000
0000
0000
ENDCHAR
STARTCHAR uniFE7D
ENCODING 65149
SWIDTH 960 0
DWIDTH 16 0
BBX 16 32 0 -8
BITMAP
000C
000C
030C
030C
C30C
C30C
C3F0
C3F0
3C00
3C00
0000
0000
0000
0000
0000
0000
FFFF
FFFF
FFFF
FFFF
0000
0000
0000
0000
0000
0000
0000
0000
0000
0000
0000
0000
ENDCHAR
STARTCHAR uniFE7F
ENCODING 65151
SWIDTH 960 0
DWIDTH 16 0
BBX 16 32 0 -8
BITMAP
03C0
03C0
0C30
0C30
0C30
0C30
03C0
03C0
0000
0000
0000
0000
0000
0000
0000
0000
FFFF
FFFF
FFFF
FFFF
0000
0000
0000
0000
0000
0000
0000
0000
0000
0000
0000
0000
ENDCHAR
STARTCHAR C00c1
ENCODING 65152
SWIDTH 960 0
DWIDTH 16 0
BBX 16 32 0 -8
BITMAP
0000
0000
0000
0000
0000
0000
0000
0000
0000
0000
00F0
00F0
03FC
03FC
0F00
0F00
03FC
03FC
03F0
03F0
0C00
0C00
0000
0000
0000
0000
0000
0000
0000
0000
0000
0000
ENDCHAR
STARTCHAR C00c2
ENCODING 65153
SWIDTH 960 0
DWIDTH 16 0
BBX 16 32 0 -8
BITMAP
0FFF
0FFF
3000
3000
00C0
00C0
00C0
00C0
00C0
00C0
00C0
00C0
00C0
00C0
00C0
00C0
00C0
00C0
00C0
00C0
0000
0000
0000
0000
0000
0000
0000
0000
0000
0000
0000
0000
ENDCHAR
STARTCHAR C0096
ENCODING 65154
SWIDTH 960 0
DWIDTH 16 0
BBX 16 32 0 -8
BITMAP
0FFF
0FFF
3000
3000
00C0
00C0
00C0
00C0
00C0
00C0
00C0
00C0
00C0
00C0
00C0
00C0
003F
003F
000F
000F
0000
0000
0000
0000
0000
0000
0000
0000
0000
0000
0000
0000
ENDCHAR
STARTCHAR C00c3
ENCODING 65155
SWIDTH 960 0
DWIDTH 16 0
BBX 16 32 0 -8
BITMAP
03C0
03C0
0C00
0C00
03F0
03F0
0C00
0C00
00C0
00C0
00C0
00C0
00C0
00C0
00C0
00C0
00C0
00C0
00C0
00C0
00C0
00C0
0000
0000
0000
0000
0000
0000
0000
0000
0000
0000
ENDCHAR
STARTCHAR C009d
ENCODING 65156
SWIDTH 960 0
DWIDTH 16 0
BBX 16 32 0 -8
BITMAP
03C0
03C0
0C00
0C00
03F0
03F0
0C00
0C00
00C0
00C0
00C0
00C0
00C0
00C0
00C0
00C0
003F
003F
000F
000F
0000
0000
0000
0000
0000
0000
0000
0000
0000
0000
0000
0000
ENDCHAR
STARTCHAR C00c4
ENCODING 65157
SWIDTH 960 0
DWIDTH 16 0
BBX 16 32 0 -8
BITMAP
0000
0000
03C0
03C0
0C00
0C00
03C0
03C0
0C00
0C00
00F0
00F0
03FC
03FC
0303
0303
03FF
03FF
00FF
00FF
000C
000C
3FF0
3FF0
0FC0
0FC0
0000
0000
0000
0000
0000
0000
ENDCHAR
STARTCHAR C00c4
ENCODING 65158
SWIDTH 960 0
DWIDTH 16 0
BBX 16 32 0 -8
BITMAP
0000
0000
03C0
03C0
0C00
0C00
03C0
03C0
0C00
0C00
00F0
00F0
03FC
03FC
0303
0303
03FF
03FF
00FF
00FF
000C
000C
3FF0
3FF0
0FC0
0FC0
0000
0000
0000
0000
0000
0000
ENDCHAR
STARTCHAR C00c5
ENCODING 65159
SWIDTH 960 0
DWIDTH 16 0
BBX 16 32 0 -8
BITMAP
00C0
00C0
03C0
03C0
00F0
00F0
00C0
00C0
00C0
00C0
00C0
00C0
00C0
00C0
00C0
00C0
0000
0000
00F0
00F0
0300
0300
00F0
00F0
0300
0300
0000
0000
0000
0000
0000
0000
ENDCHAR
STARTCHAR C009e
ENCODING 65160
SWIDTH 960 0
DWIDTH 16 0
BBX 16 32 0 -8
BITMAP
00C0
00C0
03C0
03C0
00F0
00F0
00C0
00C0
00C0
00C0
00C0
00C0
00C0
00C0
00C0
00C0
003F
003F
0F0F
0F0F
3000
3000
0F00
0F00
3000
3000
0000
0000
0000
0000
0000
0000
ENDCHAR
STARTCHAR C00e9
ENCODING 65161
SWIDTH 960 0
DWIDTH 16 0
BBX 16 32 0 -8
BITMAP
0000
0000
0000
0000
3C00
3C00
C000
C000
3C0F
3C0F
C03F
C03F
00C0
00C0
00FC
00FC
303F
303F
3003
3003
3003
3003
3FFC
3FFC
0FF0
0FF0
0000
0000
0000
0000
0000
0000
ENDCHAR
STARTCHAR C00c6
ENCODING 65162
SWIDTH 960 0
DWIDTH 16 0
BBX 16 32 0 -8
BITMAP
0000
0000
0000
0000
3C00
3C00
C000
C000
3C00
3C00
C0F0
C0F0
03FC
03FC
030F
030F
C0C3
C0C3
C030
C030
C030
C030
FFF0
FFF0
3FC0
3FC0
0000
0000
0000
0000
0000
0000
ENDCHAR
STARTCHAR C00c0
ENCODING 65163
SWIDTH 960 0
DWIDTH 16 0
BBX 16 32 0 -8
BITMAP
0000
0000
003C
003C
00C0
00C0
003C
003C
00C0
00C0
0003
0003
000F
000F
000F
000F
FFFC
FFFC
FFF0
FFF0
0000
0000
0000
0000
0000
0000
0000
0000
0000
0000
0000
0000
ENDCHAR
STARTCHAR C00c0
ENCODING 65164
SWIDTH 960 0
DWIDTH 16 0
BBX 16 32 0 -8
BITMAP
0000
0000
03C0
03C0
0C00
0C00
03C0
03C0
0C00
0C00
0030
0030
00F0
00F0
00F0
00F0
FFFF
FFFF
FF0F
FF0F
0000
0000
0000
0000
0000
0000
0000
0000
0000
0000
0000
0000
ENDCHAR
STARTCHAR C00c7
ENCODING 65165
SWIDTH 960 0
DWIDTH 16 0
BBX 16 32 0 -8
BITMAP
00C0
00C0
03C0
03C0
00F0
00F0
00C0
00C0
00C0
00C0
00C0
00C0
00C0
00C0
00C0
00C0
00C0
00C0
00C0
00C0
0000
0000
0000
0000
0000
0000
0000
0000
0000
0000
0000
0000
ENDCHAR
STARTCHAR C009f
ENCODING 65166
SWIDTH 960 0
DWIDTH 16 0
BBX 16 32 0 -8
BITMAP
0300
0300
0F00
0F00
03C0
03C0
0300
0300
0300
0300
0300
0300
0300
0300
0300
0300
00FF
00FF
003F
003F
0000
0000
0000
0000
0000
0000
0000
0000
0000
0000
0000
0000
ENDCHAR
STARTCHAR C00c8
ENCODING 65167
SWIDTH 960 0
DWIDTH 16 0
BBX 16 32 0 -8
BITMAP
0000
0000
0000
0000
0000
0000
0000
0000
0000
0000
C003
C003
C003
C003
C003
C003
FFFF
FFFF
3FFC
3FFC
0000
0000
03C0
03C0
0000
0000
0000
0000
0000
0000
0000
0000
ENDCHAR
STARTCHAR C00c8
ENCODING 65168
SWIDTH 960 0
DWIDTH 16 0
BBX 16 32 0 -8
BITMAP
0000
0000
0000
0000
0000
0000
0000
0000
0000
0000
C003
C003
C003
C003
C003
C003
FFFF
FFFF
3FFC
3FFC
0000
0000
03C0
03C0
0000
0000
0000
0000
0000
0000
0000
0000
ENDCHAR
STARTCHAR C00eb
ENCODING 65169
SWIDTH 960 0
DWIDTH 16 0
BBX 16 32 0 -8
BITMAP
0000
0000
0000
0000
0000
0000
0000
0000
0000
0000
0003
0003
000F
000F
000F
000F
FFFC
FFFC
FFF0
FFF0
0000
0000
003C
003C
0000
0000
0000
0000
0000
0000
0000
0000
ENDCHAR
STARTCHAR C00eb
ENCODING 65170
SWIDTH 960 0
DWIDTH 16 0
BBX 16 32 0 -8
BITMAP
0000
0000
0000
0000
0000
0000
0000
0000
0000
0000
0003
0003
000F
000F
000F
000F
FFFC
FFFC
FFF0
FFF0
0000
0000
003C
003C
0000
0000
0000
0000
0000
0000
0000
0000
ENDCHAR
STARTCHAR C00c9
ENCODING 65171
SWIDTH 960 0
DWIDTH 16 0
BBX 16 32 0 -8
BITMAP
0000
0000
0000
0000
0F0F
0F0F
0000
0000
003C
003C
00FF
00FF
0303
0303
0303
0303
03FF
03FF
00FC
00FC
0000
0000
0000
0000
0000
0000
0000
0000
0000
0000
0000
0000
ENDCHAR
STARTCHAR C00c9
ENCODING 65172
SWIDTH 960 0
DWIDTH 16 0
BBX 16 32 0 -8
BITMAP
0000
0000
0000
0000
0F0F
0F0F
0000
0000
003C
003C
00FF
00FF
0303
0303
0303
0303
03FF
03FF
00FC
00FC
0000
0000
0000
0000
0000
0000
0000
0000
0000
0000
0000
0000
ENDCHAR
STARTCHAR C00ca
ENCODING 65173
SWIDTH 960 0
DWIDTH 16 0
BBX 16 32 0 -8
BITMAP
0000
0000
0000
0000
0000
0000
0F3C
0F3C
0000
0000
C003
C003
C003
C003
C003
C003
FFFF
FFFF
3FFC
3FFC
0000
0000
0000
0000
0000
0000
0000
0000
0000
0000
0000
0000
ENDCHAR
STARTCHAR C00ca
ENCODING 65174
SWIDTH 960 0
DWIDTH 16 0
BBX 16 32 0 -8
BITMAP
0000
0000
0000
0000
0000
0000
0F3C
0F3C
0000
0000
C003
C003
C003
C003
C003
C003
FFFF
FFFF
3FFC
3FFC
0000
0000
0000
0000
0000
0000
0000
0000
0000
0000
0000
0000
ENDCHAR
STARTCHAR C00ec
ENCODING 65175
SWIDTH 960 0
DWIDTH 16 0
BBX 16 32 0 -8
BITMAP
0000
0000
0000
0000
0000
0000
0F0F
0F0F
0000
0000
0003
0003
000F
000F
000F
000F
FFFC
FFFC
FFF0
FFF0
0000
0000
0000
0000
0000
0000
0000
0000
0000
0000
0000
0000
ENDCHAR
STARTCHAR C00ec
ENCODING 65176
SWIDTH 960 0
DWIDTH 16 0
BBX 16 32 0 -8
BITMAP
0000
0000
0000
0000
0000
0000
0F0F
0F0F
0000
0000
0003
0003
000F
000F
000F
000F
FFFC
FFFC
FFF0
FFF0
0000
0000
0000
0000
0000
0000
0000
0000
0000
0000
0000
0000
ENDCHAR
STARTCHAR C00cb
ENCODING 65177
SWIDTH 960 0
DWIDTH 16 0
BBX 16 32 0 -8
BITMAP
0000
0000
0000
0000
03C0
03C0
3C3C
3C3C
0000
0000
C003
C003
C003
C003
C003
C003
FFFF
FFFF
3FFC
3FFC
0000
0000
0000
0000
0000
0000
0000
0000
0000
0000
0000
0000
ENDCHAR
STARTCHAR C00cb
ENCODING 65178
SWIDTH 960 0
DWIDTH 16 0
BBX 16 32 0 -8
BITMAP
0000
0000
0000
0000
03C0
03C0
3C3C
3C3C
0000
0000
C003
C003
C003
C003
C003
C003
FFFF
FFFF
3FFC
3FFC
0000
0000
0000
0000
0000
0000
0000
0000
0000
0000
0000
0000
ENDCHAR
STARTCHAR C00ed
ENCODING 65179
SWIDTH 960 0
DWIDTH 16 0
BBX 16 32 0 -8
BITMAP
0000
0000
0000
0000
00F0
00F0
0F0F
0F0F
0000
0000
0003
0003
000F
000F
000F
000F
FFFC
FFFC
FFF0
FFF0
0000
0000
0000
0000
0000
0000
0000
0000
0000
0000
0000
0000
ENDCHAR
STARTCHAR C00ed
ENCODING 65180
SWIDTH 960 0
DWIDTH 16 0
BBX 16 32 0 -8
BITMAP
0000
0000
0000
0000
00F0
00F0
0F0F
0F0F
0000
0000
0003
0003
000F
000F
000F
000F
FFFC
FFFC
FFF0
FFF0
0000
0000
0000
0000
0000
0000
0000
0000
0000
0000
0000
0000
ENDCHAR
STARTCHAR C00cc
ENCODING 65181
SWIDTH 960 0
DWIDTH 16 0
BBX 16 32 0 -8
BITMAP
0000
0000
0000
0000
0000
0000
0000
0000
0000
0000
0FC0
0FC0
3FFF
3FFF
00FF
00FF
0300
0300
0C00
0C00
303C
303C
3000
3000
0FFF
0FFF
03FC
03FC
0000
0000
0000
0000
ENDCHAR
STARTCHAR C00cc
ENCODING 65182
SWIDTH 960 0
DWIDTH 16 0
BBX 16 32 0 -8
BITMAP
0000
0000
0000
0000
0000
0000
0000
0000
0000
0000
0FC0
0FC0
3FFF
3FFF
00FC
00FC
0303
0303
0C00
0C00
303C
303C
3000
3000
0FFF
0FFF
03FC
03FC
0000
0000
0000
0000
ENDCHAR
STARTCHAR C00ee
ENCODING 65183
SWIDTH 960 0
DWIDTH 16 0
BBX 16 32 0 -8
BITMAP
0000
0000
0000
0000
0000
0000
0000
0000
0000
0000
03C0
03C0
0FFF
0FFF
003F
003F
FFC0
FFC0
FF00
FF00
0000
0000
03C0
03C0
0000
0000
0000
0000
0000
0000
0000
0000
ENDCHAR
STARTCHAR C00ee
ENCODING 65184
SWIDTH 960 0
DWIDTH 16 0
BBX 16 32 0 -8
BITMAP
0000
0000
0000
0000
0000
0000
0000
0000
0000
0000
03C0
03C0
0FFF
0FFF
003F
003F
FFC3
FFC3
FF00
FF00
0000
0000
03C0
03C0
0000
0000
0000
0000
0000
0000
0000
0000
ENDCHAR
STARTCHAR C00cd
ENCODING 65185
SWIDTH 960 0
DWIDTH 16 0
BBX 16 32 0 -8
BITMAP
0000
0000
0000
0000
0000
0000
0000
0000
0000
0000
0FC0
0FC0
3FFF
3FFF
00FF
00FF
0300
0300
0C00
0C00
3000
3000
3000
3000
0FFF
0FFF
03FC
03FC
0000
0000
0000
0000
ENDCHAR
STARTCHAR C00cc
ENCODING 65186
SWIDTH 960 0
DWIDTH 16 0
BBX 16 32 0 -8
BITMAP
0000
0000
0000
0000
0000
0000
0000
0000
0000
0000
0FC0
0FC0
3FFF
3FFF
00FC
00FC
0303
0303
0C00
0C00
3000
3000
3000
3000
0FFF
0FFF
03FC
03FC
0000
0000
0000
0000
ENDCHAR
STARTCHAR C00ef
ENCODING 65187
SWIDTH 960 0
DWIDTH 16 0
BBX 16 32 0 -8
BITMAP
0000
0000
0000
0000
0000
0000
0000
0000
0000
0000
03C0
03C0
0FFF
0FFF
003F
003F
FFC0
FFC0
FF00
FF00
0000
0000
0000
0000
0000
0000
0000
0000
0000
0000
0000
0000
ENDCHAR
STARTCHAR C00ef
ENCODING 65188
SWIDTH 960 0
DWIDTH 16 0
BBX 16 32 0 -8
BITMAP
0000
0000
0000
0000
0000
0000
0000
0000
0000
0000
03C0
03C0
0FFF
0FFF
003F
003F
FFC3
FFC3
FF00
FF00
0000
0000
0000
0000
0000
0000
0000
0000
0000
0000
0000
0000
ENDCHAR
STARTCHAR C00ce
ENCODING 65189
SWIDTH 960 0
DWIDTH 16 0
BBX 16 32 0 -8
BITMAP
0000
0000
0000
0000
0000
0000
03C0
03C0
0000
0000
0FC0
0FC0
3FFF
3FFF
00FF
00FF
0300
0300
0C00
0C00
3000
3000
3000
3000
0FFF
0FFF
03FC
03FC
0000
0000
0000
0000
ENDCHAR
STARTCHAR C00cc
ENCODING 65190
SWIDTH 960 0
DWIDTH 16 0
BBX 16 32 0 -8
BITMAP
0000
0000
0000
0000
0000
0000
03C0
03C0
0000
0000
0FC0
0FC0
3FFF
3FFF
00FC
00FC
0303
0303
0C00
0C00
3000
3000
3000
3000
0FFF
0FFF
03FC
03FC
0000
0000
0000
0000
ENDCHAR
STARTCHAR C00f0
ENCODING 65191
SWIDTH 960 0
DWIDTH 16 0
BBX 16 32 0 -8
BITMAP
0000
0000
0000
0000
0000
0000
03C0
03C0
0000
0000
03C0
03C0
0FFF
0FFF
003F
003F
FFC0
FFC0
FF00
FF00
0000
0000
0000
0000
0000
0000
0000
0000
0000
0000
0000
0000
ENDCHAR
STARTCHAR C00f0
ENCODING 65192
SWIDTH 960 0
DWIDTH 16 0
BBX 16 32 0 -8
BITMAP
0000
0000
0000
0000
0000
0000
03C0
03C0
0000
0000
03C0
03C0
0FFF
0FFF
003F
003F
FFC3
FFC3
FF00
FF00
0000
0000
0000
0000
0000
0000
0000
0000
0000
0000
0000
0000
ENDCHAR
STARTCHAR C00cf
ENCODING 65193
SWIDTH 960 0
DWIDTH 16 0
BBX 16 32 0 -8
BITMAP
0000
0000
0000
0000
0000
0000
0000
0000
00F0
00F0
03FC
03FC
000F
000F
0003
0003
0C0F
0C0F
3FFC
3FFC
0FF0
0FF0
0000
0000
0000
0000
0000
0000
0000
0000
0000
0000
ENDCHAR
STARTCHAR C00cf
ENCODING 65194
SWIDTH 960 0
DWIDTH 16 0
BBX 16 32 0 -8
BITMAP
0000
0000
0000
0000
0000
0000
0000
0000
00F0
00F0
03FC
03FC
000F
000F
0003
0003
0C0F
0C0F
3FFC
3FFC
0FF0
0FF0
0000
0000
0000
0000
0000
0000
0000
0000
0000
0000
ENDCHAR
STARTCHAR C00d0
ENCODING 65195
SWIDTH 960 0
DWIDTH 16 0
BBX 16 32 0 -8
BITMAP
0000
0000
0000
0000
00F0
00F0
0000
0000
00F0
00F0
03FC
03FC
000F
000F
0003
0003
0C0F
0C0F
3FFC
3FFC
0FF0
0FF0
0000
0000
0000
0000
0000
0000
0000
0000
0000
0000
ENDCHAR
STARTCHAR C00d0
ENCODING 65196
SWIDTH 960 0
DWIDTH 16 0
BBX 16 32 0 -8
BITMAP
0000
0000
0000
0000
00F0
00F0
0000
0000
00F0
00F0
03FC
03FC
000F
000F
0003
0003
0C0F
0C0F
3FFC
3FFC
0FF0
0FF0
0000
0000
0000
0000
0000
0000
0000
0000
0000
0000
ENDCHAR
STARTCHAR C00d1
ENCODING 65197
SWIDTH 960 0
DWIDTH 16 0
BBX 16 32 0 -8
BITMAP
0000
0000
0000
0000
0000
0000
0000
0000
0000
0000
000C
000C
003F
003F
000F
000F
0003
0003
0003
0003
000C
000C
3FF0
3FF0
0FC0
0FC0
0000
0000
0000
0000
0000
0000
ENDCHAR
STARTCHAR C00d1
ENCODING 65198
SWIDTH 960 0
DWIDTH 16 0
BBX 16 32 0 -8
BITMAP
0000
0000
0000
0000
0000
0000
0000
0000
0000
0000
000C
000C
003F
003F
000F
000F
0003
0003
0003
0003
000C
000C
3FF0
3FF0
0FC0
0FC0
0000
0000
0000
0000
0000
0000
ENDCHAR
STARTCHAR C00d2
ENCODING 65199
SWIDTH 960 0
DWIDTH 16 0
BBX 16 32 0 -8
BITMAP
0000
0000
0000
0000
0000
0000
003C
003C
0000
0000
000C
000C
003F
003F
000F
000F
0003
0003
0003
0003
000C
000C
3FF0
3FF0
0FC0
0FC0
0000
0000
0000
0000
0000
0000
ENDCHAR
STARTCHAR C00d2
ENCODING 65200
SWIDTH 960 0
DWIDTH 16 0
BBX 16 32 0 -8
BITMAP
0000
0000
0000
0000
0000
0000
003C
003C
0000
0000
000C
000C
003F
003F
000F
000F
0003
0003
0003
0003
000C
000C
3FF0
3FF0
0FC0
0FC0
0000
0000
0000
0000
0000
0000
ENDCHAR
STARTCHAR C00d3
ENCODING 65201
SWIDTH 960 0
DWIDTH 16 0
BBX 16 32 0 -8
BITMAP
0000
0000
0000
0000
0000
0000
0000
0000
0000
0000
0303
0303
0333
0333
03FF
03FF
00CC
00CC
C030
C030
C030
C030
FFF0
FFF0
3FC0
3FC0
0000
0000
0000
0000
0000
0000
ENDCHAR
STARTCHAR C00d3
ENCODING 65202
SWIDTH 960 0
DWIDTH 16 0
BBX 16 32 0 -8
BITMAP
0000
0000
0000
0000
0000
0000
0000
0000
0000
0000
0000
0000
0303
0303
0333
0333
03FF
03FF
00CC
00CC
C030
C030
C030
C030
FFF0
FFF0
3FC0
3FC0
0000
0000
0000
0000
ENDCHAR
STARTCHAR C00f1
ENCODING 65203
SWIDTH 960 0
DWIDTH 16 0
BBX 16 32 0 -8
BITMAP
0000
0000
0000
0000
0000
0000
0000
0000
0000
0000
0303
0303
0333
0333
0333
0333
FFFF
FFFF
FCCC
FCCC
0000
0000
0000
0000
0000
0000
0000
0000
0000
0000
0000
0000
ENDCHAR
STARTCHAR C00f1
ENCODING 65204
SWIDTH 960 0
DWIDTH 16 0
BBX 16 32 0 -8
BITMAP
0000
0000
0000
0000
0000
0000
0000
0000
0000
0000
0303
0303
0333
0333
0333
0333
FFFF
FFFF
FCCC
FCCC
0000
0000
0000
0000
0000
0000
0000
0000
0000
0000
0000
0000
ENDCHAR
STARTCHAR C00d4
ENCODING 65205
SWIDTH 960 0
DWIDTH 16 0
BBX 16 32 0 -8
BITMAP
0000
0000
0000
0000
0030
0030
0303
0303
0000
0000
0303
0303
0333
0333
03FF
03FF
00CC
00CC
C030
C030
C030
C030
FFF0
FFF0
3FC0
3FC0
0000
0000
0000
0000
0000
0000
ENDCHAR
STARTCHAR C00d4
ENCODING 65206
SWIDTH 960 0
DWIDTH 16 0
BBX 16 32 0 -8
BITMAP
0000
0000
0000
0000
0000
0000
0030
0030
0303
0303
0000
0000
0303
0303
0333
0333
03FF
03FF
00CC
00CC
C030
C030
C030
C030
FFF0
FFF0
3FC0
3FC0
0000
0000
0000
0000
ENDCHAR
STARTCHAR C00f2
ENCODING 65207
SWIDTH 960 0
DWIDTH 16 0
BBX 16 32 0 -8
BITMAP
0000
0000
0000
0000
00F0
00F0
0F0F
0F0F
0000
0000
0303
0303
0333
0333
0333
0333
FFFF
FFFF
FCCC
FCCC
0000
0000
0000
0000
0000
0000
0000
0000
0000
0000
0000
0000
ENDCHAR
STARTCHAR C00f2
ENCODING 65208
SWIDTH 960 0
DWIDTH 16 0
BBX 16 32 0 -8
BITMAP
0000
0000
0000
0000
00F0
00F0
0F0F
0F0F
0000
0000
0303
0303
0333
0333
0333
0333
FFFF
FFFF
FCCC
FCCC
0000
0000
0000
0000
0000
0000
0000
0000
0000
0000
0000
0000
ENDCHAR
STARTCHAR C00d5
ENCODING 65209
SWIDTH 960 0
DWIDTH 16 0
BBX 16 32 0 -8
BITMAP
0000
0000
0000
0000
0000
0000
0000
0000
00FC
00FC
0303
0303
0FFF
0FFF
03FC
03FC
00C0
00C0
C030
C030
C030
C030
FFF0
FFF0
3FC0
3FC0
0000
0000
0000
0000
0000
0000
ENDCHAR
STARTCHAR C00d5
ENCODING 65210
SWIDTH 960 0
DWIDTH 16 0
BBX 16 32 0 -8
BITMAP
0000
0000
0000
0000
0000
0000
0000
0000
0000
0000
00FC
00FC
0303
0303
0FFF
0FFF
03FC
03FC
00C0
00C0
C030
C030
C030
C030
FFF0
FFF0
3FC0
3FC0
0000
0000
0000
0000
ENDCHAR
STARTCHAR C00f3
ENCODING 65211
SWIDTH 960 0
DWIDTH 16 0
BBX 16 32 0 -8
BITMAP
0000
0000
0000
0000
0000
0000
0000
0000
000C
000C
003F
003F
0CCF
0CCF
0F03
0F03
FFFC
FFFC
F3F0
F3F0
0000
0000
0000
0000
0000
0000
0000
0000
0000
0000
0000
0000
ENDCHAR
STARTCHAR C00f3
ENCODING 65212
SWIDTH 960 0
DWIDTH 16 0
BBX 16 32 0 -8
BITMAP
0000
0000
0000
0000
0000
0000
0000
0000
000C
000C
003F
003F
0CCF
0CCF
0F03
0F03
FFFC
FFFC
F3F0
F3F0
0000
0000
0000
0000
0000
0000
0000
0000
0000
0000
0000
0000
ENDCHAR
STARTCHAR C00d6
ENCODING 65213
SWIDTH 960 0
DWIDTH 16 0
BBX 16 32 0 -8
BITMAP
0000
0000
0000
0000
003C
003C
0000
0000
00FC
00FC
0303
0303
0FFF
0FFF
03FC
03FC
00C0
00C0
C030
C030
C030
C030
FFF0
FFF0
3FC0
3FC0
0000
0000
0000
0000
0000
0000
ENDCHAR
STARTCHAR C00d6
ENCODING 65214
SWIDTH 960 0
DWIDTH 16 0
BBX 16 32 0 -8
BITMAP
0000
0000
0000
0000
0000
0000
003C
003C
0000
0000
00FC
00FC
0303
0303
0FFF
0FFF
03FC
03FC
00C0
00C0
C030
C030
C030
C030
FFF0
FFF0
3FC0
3FC0
0000
0000
0000
0000
ENDCHAR
STARTCHAR C00f4
ENCODING 65215
SWIDTH 960 0
DWIDTH 16 0
BBX 16 32 0 -8
BITMAP
0000
0000
0000
0000
00F0
00F0
0000
0000
000C
000C
003F
003F
0CCF
0CCF
0F03
0F03
FFFC
FFFC
F3F0
F3F0
0000
0000
0000
0000
0000
0000
0000
0000
0000
0000
0000
0000
ENDCHAR
STARTCHAR C00f4
ENCODING 65216
SWIDTH 960 0
DWIDTH 16 0
BBX 16 32 0 -8
BITMAP
0000
0000
0000
0000
00F0
00F0
0000
0000
000C
000C
003F
003F
0CCF
0CCF
0F03
0F03
FFFC
FFFC
F3F0
F3F0
0000
0000
0000
0000
0000
0000
0000
0000
0000
0000
0000
0000
ENDCHAR
STARTCHAR C00d7
ENCODING 65217
SWIDTH 960 0
DWIDTH 16 0
BBX 16 32 0 -8
BITMAP
0300
0300
0F00
0F00
03C0
03C0
0300
0300
030C
030C
033F
033F
03CF
03CF
C303
C303
FFFC
FFFC
3FF0
3FF0
0000
0000
0000
0000
0000
0000
0000
0000
0000
0000
0000
0000
ENDCHAR
STARTCHAR C00d7
ENCODING 65218
SWIDTH 960 0
DWIDTH 16 0
BBX 16 32 0 -8
BITMAP
0300
0300
0F00
0F00
03C0
03C0
0300
0300
030C
030C
033F
033F
03CF
03CF
C303
C303
FFFF
FFFF
3FF0
3FF0
0000
0000
0000
0000
0000
0000
0000
0000
0000
0000
0000
0000
ENDCHAR
STARTCHAR C00d7
ENCODING 65219
SWIDTH 960 0
DWIDTH 16 0
BBX 16 32 0 -8
BITMAP
0300
0300
0F00
0F00
03C0
03C0
0300
0300
030C
030C
033F
033F
03CF
03CF
0303
0303
FFFC
FFFC
FFF0
FFF0
0000
0000
0000
0000
0000
0000
0000
0000
0000
0000
0000
0000
ENDCHAR
STARTCHAR C00d7
ENCODING 65220
SWIDTH 960 0
DWIDTH 16 0
BBX 16 32 0 -8
BITMAP
0300
0300
0F00
0F00
03C0
03C0
0300
0300
030C
030C
033F
033F
03CF
03CF
0303
0303
FFFF
FFFF
FFF0
FFF0
0000
0000
0000
0000
0000
0000
0000
0000
0000
0000
0000
0000
ENDCHAR
STARTCHAR C00d7
ENCODING 65221
SWIDTH 960 0
DWIDTH 16 0
BBX 16 32 0 -8
BITMAP
0300
0300
0F0F
0F0F
03C0
03C0
0300
0300
030C
030C
033F
033F
03CF
03CF
C303
C303
FFFC
FFFC
3FF0
3FF0
0000
0000
0000
0000
0000
0000
0000
0000
0000
0000
0000
0000
ENDCHAR
STARTCHAR C00d7
ENCODING 65222
SWIDTH 960 0
DWIDTH 16 0
BBX 16 32 0 -8
BITMAP
0300
0300
0F0F
0F0F
03C0
03C0
0300
0300
030C
030C
033F
033F
03CF
03CF
C303
C303
FFFF
FFFF
3FF0
3FF0
0000
0000
0000
0000
0000
0000
0000
0000
0000
0000
0000
0000
ENDCHAR
STARTCHAR C00d7
ENCODING 65223
SWIDTH 960 0
DWIDTH 16 0
BBX 16 32 0 -8
BITMAP
0300
0300
0F0F
0F0F
03C0
03C0
0300
0300
030C
030C
033F
033F
03CF
03CF
0303
0303
FFFC
FFFC
FFF0
FFF0
0000
0000
0000
0000
0000
0000
0000
0000
0000
0000
0000
0000
ENDCHAR
STARTCHAR C00d7
ENCODING 65224
SWIDTH 960 0
DWIDTH 16 0
BBX 16 32 0 -8
BITMAP
0300
0300
0F0F
0F0F
03C0
03C0
0300
0300
030C
030C
033F
033F
03CF
03CF
0303
0303
FFFF
FFFF
FFF0
FFF0
0000
0000
0000
0000
0000
0000
0000
0000
0000
0000
0000
0000
ENDCHAR
STARTCHAR C00d9
ENCODING 65225
SWIDTH 960 0
DWIDTH 16 0
BBX 16 32 0 -8
BITMAP
0000
0000
0000
0000
0000
0000
0F00
0F00
3FC0
3FC0
3000
3000
3000
3000
0FC0
0FC0
3000
3000
C000
C000
C000
C000
C000
C000
3FFC
3FFC
0FF0
0FF0
0000
0000
0000
0000
ENDCHAR
STARTCHAR C0099
ENCODING 65226
SWIDTH 960 0
DWIDTH 16 0
BBX 16 32 0 -8
BITMAP
0000
0000
0000
0000
0000
0000
FF00
FF00
FFC0
FFC0
30C0
30C0
0F00
0F00
0F00
0F00
30FF
30FF
C03F
C03F
C000
C000
C000
C000
3FFC
3FFC
0FF0
0FF0
0000
0000
0000
0000
ENDCHAR
STARTCHAR C00f5
ENCODING 65227
SWIDTH 960 0
DWIDTH 16 0
BBX 16 32 0 -8
BITMAP
0000
0000
0000
0000
0000
0000
0000
0000
003C
003C
00FF
00FF
0300
0300
0300
0300
FFFF
FFFF
FFFC
FFFC
0000
0000
0000
0000
0000
0000
0000
0000
0000
0000
0000
0000
ENDCHAR
STARTCHAR C0097
ENCODING 65228
SWIDTH 960 0
DWIDTH 16 0
BBX 16 32 0 -8
BITMAP
0000
0000
0000
0000
0000
0000
0000
0000
0FFC
0FFC
0FFF
0FFF
00C3
00C3
003C
003C
FFC3
FFC3
FF00
FF00
0000
0000
0000
0000
0000
0000
0000
0000
0000
0000
0000
0000
ENDCHAR
STARTCHAR C00da
ENCODING 65229
SWIDTH 960 0
DWIDTH 16 0
BBX 16 32 0 -8
BITMAP
0000
0000
0F00
0F00
0000
0000
0F00
0F00
3FC0
3FC0
3000
3000
3000
3000
0FC0
0FC0
3000
3000
C000
C000
C000
C000
C000
C000
3FFC
3FFC
0FF0
0FF0
0000
0000
0000
0000
ENDCHAR
STARTCHAR C009a
ENCODING 65230
SWIDTH 960 0
DWIDTH 16 0
BBX 16 32 0 -8
BITMAP
0000
0000
0F00
0F00
0000
0000
FF00
FF00
FFC0
FFC0
30C0
30C0
0F00
0F00
0F00
0F00
30FF
30FF
C03F
C03F
C000
C000
C000
C000
3FFC
3FFC
0FF0
0FF0
0000
0000
0000
0000
ENDCHAR
STARTCHAR C00f6
ENCODING 65231
SWIDTH 960 0
DWIDTH 16 0
BBX 16 32 0 -8
BITMAP
0000
0000
0000
0000
003C
003C
0000
0000
003C
003C
00FF
00FF
0300
0300
0300
0300
FFFF
FFFF
FFFC
FFFC
0000
0000
0000
0000
0000
0000
0000
0000
0000
0000
0000
0000
ENDCHAR
STARTCHAR C0098
ENCODING 65232
SWIDTH 960 0
DWIDTH 16 0
BBX 16 32 0 -8
BITMAP
0000
0000
0000
0000
00F0
00F0
0000
0000
0FFC
0FFC
0FFF
0FFF
00C3
00C3
003C
003C
FFC3
FFC3
FF00
FF00
0000
0000
0000
0000
0000
0000
0000
0000
0000
0000
0000
0000
ENDCHAR
STARTCHAR C00e1
ENCODING 65233
SWIDTH 960 0
DWIDTH 16 0
BBX 16 32 0 -8
BITMAP
0000
0000
0000
0000
003C
003C
0000
0000
000C
000C
003F
003F
0033
0033
C03F
C03F
C003
C003
FFFF
FFFF
3FFC
3FFC
0000
0000
0000
0000
0000
0000
0000
0000
0000
0000
ENDCHAR
STARTCHAR C00e1
ENCODING 65234
SWIDTH 960 0
DWIDTH 16 0
BBX 16 32 0 -8
BITMAP
0000
0000
0000
0000
003C
003C
0000
0000
000C
000C
003F
003F
0033
0033
C03F
C03F
C003
C003
FFFF
FFFF
3FFC
3FFC
0000
0000
0000
0000
0000
0000
0000
0000
0000
0000
ENDCHAR
STARTCHAR C00f7
ENCODING 65235
SWIDTH 960 0
DWIDTH 16 0
BBX 16 32 0 -8
BITMAP
0000
0000
00F0
00F0
0000
0000
00F0
00F0
03FC
03FC
030F
030F
03FF
03FF
0003
0003
FFFF
FFFF
FFFC
FFFC
0000
0000
0000
0000
0000
0000
0000
0000
0000
0000
0000
0000
ENDCHAR
STARTCHAR C00f7
ENCODING 65236
SWIDTH 960 0
DWIDTH 16 0
BBX 16 32 0 -8
BITMAP
0000
0000
00F0
00F0
0000
0000
00F0
00F0
03FC
03FC
030F
030F
03FF
03FF
0003
0003
FFFF
FFFF
FFFC
FFFC
0000
0000
0000
0000
0000
0000
0000
0000
0000
0000
0000
0000
ENDCHAR
STARTCHAR C00e2
ENCODING 65237
SWIDTH 960 0
DWIDTH 16 0
BBX 16 32 0 -8
BITMAP
0000
0000
0000
0000
03CF
03CF
0000
0000
0030
0030
00FC
00FC
00C3
00C3
00CF
00CF
003F
003F
3003
3003
300C
300C
3FF0
3FF0
0FC0
0FC0
0000
0000
0000
0000
0000
0000
ENDCHAR
STARTCHAR C00e2
ENCODING 65238
SWIDTH 960 0
DWIDTH 16 0
BBX 16 32 0 -8
BITMAP
0000
0000
0000
0000
03CF
03CF
0000
0000
0030
0030
00FC
00FC
00C3
00C3
00CF
00CF
003F
003F
3003
3003
300C
300C
3FF0
3FF0
0FC0
0FC0
0000
0000
0000
0000
0000
0000
ENDCHAR
STARTCHAR C00f8
ENCODING 65239
SWIDTH 960 0
DWIDTH 16 0
BBX 16 32 0 -8
BITMAP
0000
0000
0000
0000
0F0F
0F0F
0000
0000
003C
003C
00FF
00FF
00C3
00C3
003F
003F
FFFF
FFFF
FFFC
FFFC
0000
0000
0000
0000
0000
0000
0000
0000
0000
0000
0000
0000
ENDCHAR
STARTCHAR C00f8
ENCODING 65240
SWIDTH 960 0
DWIDTH 16 0
BBX 16 32 0 -8
BITMAP
0000
0000
0000
0000
0F0F
0F0F
0000
0000
003C
003C
00FF
00FF
00C3
00C3
003F
003F
FFFF
FFFF
FFFC
FFFC
0000
0000
0000
0000
0000
0000
0000
0000
0000
0000
0000
0000
ENDCHAR
STARTCHAR C00e3
ENCODING 65241
SWIDTH 960 0
DWIDTH 16 0
BBX 16 32 0 -8
BITMAP
0003
0003
000F
000F
0003
0003
03C3
03C3
0C03
0C03
03C3
03C3
0C03
0C03
0003
0003
C003
C003
C003
C003
FFFF
FFFF
3FFC
3FFC
0000
0000
0000
0000
0000
0000
0000
0000
ENDCHAR
STARTCHAR C00e3
ENCODING 65242
SWIDTH 960 0
DWIDTH 16 0
BBX 16 32 0 -8
BITMAP
0003
0003
000F
000F
0003
0003
03C3
03C3
0C03
0C03
03C3
03C3
0C03
0C03
0003
0003
C003
C003
C003
C003
FFFF
FFFF
3FFC
3FFC
0000
0000
0000
0000
0000
0000
0000
0000
ENDCHAR
STARTCHAR C00f9
ENCODING 65243
SWIDTH 960 0
DWIDTH 16 0
BBX 16 32 0 -8
BITMAP
0003
0003
000F
000F
0030
0030
00C0
00C0
0300
0300
0300
0300
00FC
00FC
0003
0003
FFFF
FFFF
FFFC
FFFC
0000
0000
0000
0000
0000
0000
0000
0000
0000
0000
0000
0000
ENDCHAR
STARTCHAR C00f9
ENCODING 65244
SWIDTH 960 0
DWIDTH 16 0
BBX 16 32 0 -8
BITMAP
0003
0003
000F
000F
0030
0030
00C0
00C0
0300
0300
0300
0300
00FC
00FC
0003
0003
FFFF
FFFF
FFFC
FFFC
0000
0000
0000
0000
0000
0000
0000
0000
0000
0000
0000
0000
ENDCHAR
STARTCHAR C00e4
ENCODING 65245
SWIDTH 960 0
DWIDTH 16 0
BBX 16 32 0 -8
BITMAP
0003
0003
000F
000F
000F
000F
0003
0003
0003
0003
0003
0003
0003
0003
0003
0003
C003
C003
C003
C003
FFFF
FFFF
3FFC
3FFC
0000
0000
0000
0000
0000
0000
0000
0000
ENDCHAR
STARTCHAR C00e4
ENCODING 65246
SWIDTH 960 0
DWIDTH 16 0
BBX 16 32 0 -8
BITMAP
0003
0003
000F
000F
000F
000F
0003
0003
0003
0003
0003
0003
0003
0003
0003
0003
C003
C003
C003
C003
FFFF
FFFF
3FFC
3FFC
0000
0000
0000
0000
0000
0000
0000
0000
ENDCHAR
STARTCHAR C00fa
ENCODING 65247
SWIDTH 960 0
DWIDTH 16 0
BBX 16 32 0 -8
BITMAP
0003
0003
000F
000F
000F
000F
0003
0003
0003
0003
0003
0003
0003
0003
0003
0003
FFFC
FFFC
FFF0
FFF0
0000
0000
0000
0000
0000
0000
0000
0000
0000
0000
0000
0000
ENDCHAR
STARTCHAR C00fa
ENCODING 65248
SWIDTH 960 0
DWIDTH 16 0
BBX 16 32 0 -8
BITMAP
0003
0003
000F
000F
000F
000F
0003
0003
0003
0003
0003
0003
0003
0003
0003
0003
FFFC
FFFC
FFF0
FFF0
0000
0000
0000
0000
0000
0000
0000
0000
0000
0000
0000
0000
ENDCHAR
STARTCHAR C00e5
ENCODING 65249
SWIDTH 960 0
DWIDTH 16 0
BBX 16 32 0 -8
BITMAP
0000
0000
0000
0000
0000
0000
0000
0000
00F0
00F0
033C
033C
003F
003F
03FF
03FF
0C0C
0C0C
0C00
0C00
0C00
0C00
0C00
0C00
0C00
0C00
0C00
0C00
0000
0000
0000
0000
ENDCHAR
STARTCHAR C00e5
ENCODING 65250
SWIDTH 960 0
DWIDTH 16 0
BBX 16 32 0 -8
BITMAP
0000
0000
0000
0000
0000
0000
0000
0000
00F0
00F0
033C
033C
003F
003F
03FF
03FF
0C03
0C03
0C00
0C00
0C00
0C00
0C00
0C00
0C00
0C00
0C00
0C00
0000
0000
0000
0000
ENDCHAR
STARTCHAR C00fb
ENCODING 65251
SWIDTH 960 0
DWIDTH 16 0
BBX 16 32 0 -8
BITMAP
0000
0000
0000
0000
0000
0000
0000
0000
0000
0000
00F0
00F0
033C
033C
030F
030F
FFCF
FFCF
FC3C
FC3C
0000
0000
0000
0000
0000
0000
0000
0000
0000
0000
0000
0000
ENDCHAR
STARTCHAR C00fb
ENCODING 65252
SWIDTH 960 0
DWIDTH 16 0
BBX 16 32 0 -8
BITMAP
0000
0000
0000
0000
0000
0000
0000
0000
0000
0000
00F0
00F0
033C
033C
030F
030F
FFCF
FFCF
FC3C
FC3C
0000
0000
0000
0000
0000
0000
0000
0000
0000
0000
0000
0000
ENDCHAR
STARTCHAR C00e6
ENCODING 65253
SWIDTH 960 0
DWIDTH 16 0
BBX 16 32 0 -8
BITMAP
0000
0000
0000
0000
0000
0000
03C0
03C0
0000
0000
0003
0003
000F
000F
0C0F
0C0F
3003
3003
3003
3003
3003
3003
3FFC
3FFC
0FF0
0FF0
0000
0000
0000
0000
0000
0000
ENDCHAR
STARTCHAR C00e6
ENCODING 65254
SWIDTH 960 0
DWIDTH 16 0
BBX 16 32 0 -8
BITMAP
0000
0000
0000
0000
0000
0000
03C0
03C0
0000
0000
0003
0003
000F
000F
0C0F
0C0F
3003
3003
3003
3003
3003
3003
3FFC
3FFC
0FF0
0FF0
0000
0000
0000
0000
0000
0000
ENDCHAR
STARTCHAR C00fc
ENCODING 65255
SWIDTH 960 0
DWIDTH 16 0
BBX 16 32 0 -8
BITMAP
0000
0000
0000
0000
0000
0000
000F
000F
0000
0000
0003
0003
000F
000F
000F
000F
FFFC
FFFC
FFF0
FFF0
0000
0000
0000
0000
0000
0000
0000
0000
0000
0000
0000
0000
ENDCHAR
STARTCHAR C00fc
ENCODING 65256
SWIDTH 960 0
DWIDTH 16 0
BBX 16 32 0 -8
BITMAP
0000
0000
0000
0000
0000
0000
000F
000F
0000
0000
0003
0003
000F
000F
000F
000F
FFFC
FFFC
FFF0
FFF0
0000
0000
0000
0000
0000
0000
0000
0000
0000
0000
0000
0000
ENDCHAR
STARTCHAR C00c9
ENCODING 65257
SWIDTH 960 0
DWIDTH 16 0
BBX 16 32 0 -8
BITMAP
0000
0000
0000
0000
0000
0000
0000
0000
003C
003C
00FF
00FF
0303
0303
0303
0303
03FF
03FF
00FC
00FC
0000
0000
0000
0000
0000
0000
0000
0000
0000
0000
0000
0000
ENDCHAR
STARTCHAR C00c9
ENCODING 65258
SWIDTH 960 0
DWIDTH 16 0
BBX 16 32 0 -8
BITMAP
0000
0000
0000
0000
0000
0000
0000
0000
003C
003C
00FF
00FF
0303
0303
0303
0303
03FF
03FF
00FC
00FC
0000
0000
0000
0000
0000
0000
0000
0000
0000
0000
0000
0000
ENDCHAR
STARTCHAR C00fd
ENCODING 65259
SWIDTH 960 0
DWIDTH 16 0
BBX 16 32 0 -8
BITMAP
0000
0000
0000
0000
0000
0000
0FC0
0FC0
03F0
03F0
00CC
00CC
0333
0333
0333
0333
FFC3
FFC3
FCFF
FCFF
003C
003C
0000
0000
0000
0000
0000
0000
0000
0000
0000
0000
ENDCHAR
STARTCHAR C009b
ENCODING 65260
SWIDTH 960 0
DWIDTH 16 0
BBX 16 32 0 -8
BITMAP
0000
0000
0000
0000
0000
0000
000C
000C
003F
003F
00C3
00C3
00C3
00C3
00CC
00CC
FFFF
FFFF
FFCF
FFCF
00CC
00CC
00C3
00C3
003F
003F
000C
000C
0000
0000
0000
0000
ENDCHAR
STARTCHAR C00e8
ENCODING 65261
SWIDTH 960 0
DWIDTH 16 0
BBX 16 32 0 -8
BITMAP
0000
0000
0000
0000
0000
0000
0000
0000
0000
0000
00F0
00F0
03FC
03FC
0303
0303
03FF
03FF
00FF
00FF
000C
000C
3FF0
3FF0
0FC0
0FC0
0000
0000
0000
0000
0000
0000
ENDCHAR
STARTCHAR C00e8
ENCODING 65262
SWIDTH 960 0
DWIDTH 16 0
BBX 16 32 0 -8
BITMAP
0000
0000
0000
0000
0000
0000
0000
0000
0000
0000
00F0
00F0
03FC
03FC
0303
0303
03FF
03FF
00FF
00FF
000C
000C
3FF0
3FF0
0FC0
0FC0
0000
0000
0000
0000
0000
0000
ENDCHAR
STARTCHAR C00e9
ENCODING 65263
SWIDTH 960 0
DWIDTH 16 0
BBX 16 32 0 -8
BITMAP
0000
0000
0000
0000
0000
0000
0000
0000
000F
000F
003F
003F
00C0
00C0
00FC
00FC
303F
303F
3003
3003
3003
3003
3FFC
3FFC
0FF0
0FF0
0000
0000
0000
0000
0000
0000
ENDCHAR
STARTCHAR C008f
ENCODING 65264
SWIDTH 960 0
DWIDTH 16 0
BBX 16 32 0 -8
BITMAP
0000
0000
0000
0000
0000
0000
0000
0000
0000
0000
0000
0000
00F0
00F0
03FC
03FC
030F
030F
C0C3
C0C3
C030
C030
C030
C030
FFF0
FFF0
3FC0
3FC0
0000
0000
0000
0000
ENDCHAR
STARTCHAR C00ea
ENCODING 65265
SWIDTH 960 0
DWIDTH 16 0
BBX 16 32 0 -8
BITMAP
0000
0000
0000
0000
0000
0000
000F
000F
003F
003F
00C0
00C0
00FC
00FC
303F
303F
3003
3003
3003
3003
3FFC
3FFC
0FF0
0FF0
0000
0000
0F3C
0F3C
0000
0000
0000
0000
ENDCHAR
STARTCHAR C0090
ENCODING 65266
SWIDTH 960 0
DWIDTH 16 0
BBX 16 32 0 -8
BITMAP
0000
0000
0000
0000
0000
0000
0000
0000
0000
0000
00F0
00F0
03FC
03FC
C30C
C30C
C0CF
C0CF
C033
C033
FFF0
FFF0
3FC0
3FC0
0000
0000
3CF0
3CF0
0000
0000
0000
0000
ENDCHAR
STARTCHAR C00fe
ENCODING 65267
SWIDTH 960 0
DWIDTH 16 0
BBX 16 32 0 -8
BITMAP
0000
0000
0000
0000
0000
0000
0000
0000
0000
0000
0003
0003
000F
000F
000F
000F
FFFC
FFFC
FFF0
FFF0
0000
0000
0F0F
0F0F
0000
0000
0000
0000
0000
0000
0000
0000
ENDCHAR
STARTCHAR C00fe
ENCODING 65268
SWIDTH 960 0
DWIDTH 16 0
BBX 16 32 0 -8
BITMAP
0000
0000
0000
0000
0000
0000
0000
0000
0000
0000
0003
0003
000F
000F
000F
000F
FFFC
FFFC
FFF0
FFF0
0000
0000
0F0F
0F0F
0000
0000
0000
0000
0000
0000
0000
0000
ENDCHAR
STARTCHAR C00a2
ENCODING 65269
SWIDTH 960 0
DWIDTH 16 0
BBX 16 32 0 -8
BITMAP
0003
0003
0FCF
0FCF
300F
300F
03C3
03C3
03C3
03C3
00F3
00F3
0033
0033
0033
0033
3FFF
3FFF
0FFC
0FFC
0000
0000
0000
0000
0000
0000
0000
0000
0000
0000
0000
0000
ENDCHAR
STARTCHAR C00a2
ENCODING 65270
SWIDTH 960 0
DWIDTH 16 0
BBX 16 32 0 -8
BITMAP
0003
0003
0FCF
0FCF
300F
300F
03C3
03C3
03C3
03C3
00F3
00F3
0033
0033
0033
0033
3FFF
3FFF
0FFC
0FFC
0000
0000
0000
0000
0000
0000
0000
0000
0000
0000
0000
0000
ENDCHAR
STARTCHAR C00a3
ENCODING 65271
SWIDTH 960 0
DWIDTH 16 0
BBX 16 32 0 -8
BITMAP
03C3
03C3
0C0F
0C0F
03CF
03CF
0C03
0C03
00C3
00C3
00F3
00F3
0033
0033
0033
0033
3FFF
3FFF
0FFC
0FFC
0000
0000
0000
0000
0000
0000
0000
0000
0000
0000
0000
0000
ENDCHAR
STARTCHAR C00a3
ENCODING 65272
SWIDTH 960 0
DWIDTH 16 0
BBX 16 32 0 -8
BITMAP
03C3
03C3
0C0F
0C0F
03CF
03CF
0C03
0C03
00C3
00C3
00F3
00F3
0033
0033
0033
0033
3FFF
3FFF
0FFC
0FFC
0000
0000
0000
0000
0000
0000
0000
0000
0000
0000
0000
0000
ENDCHAR
STARTCHAR C00a4
ENCODING 65273
SWIDTH 960 0
DWIDTH 16 0
BBX 16 32 0 -8
BITMAP
0003
0003
000F
000F
030F
030F
0FC3
0FC3
03C3
03C3
00F3
00F3
0033
0033
0033
0033
3FFF
3FFF
0FFC
0FFC
0000
0000
00F0
00F0
0300
0300
0FF0
0FF0
0000
0000
0000
0000
ENDCHAR
STARTCHAR C00a4
ENCODING 65274
SWIDTH 960 0
DWIDTH 16 0
BBX 16 32 0 -8
BITMAP
0003
0003
000F
000F
030F
030F
0FC3
0FC3
03C3
03C3
00F3
00F3
0033
0033
0033
0033
3FFF
3FFF
0FFC
0FFC
0000
0000
00F0
00F0
0300
0300
0FF0
0FF0
0000
0000
0000
0000
ENDCHAR
STARTCHAR C00a1
ENCODING 65275
SWIDTH 960 0
DWIDTH 16 0
BBX 16 32 0 -8
BITMAP
0003
0003
300F
300F
0F0F
0F0F
0FC3
0FC3
00F3
00F3
0033
0033
0033
0033
0033
0033
3FFF
3FFF
0FFC
0FFC
0000
0000
0000
0000
0000
0000
0000
0000
0000
0000
0000
0000
ENDCHAR
STARTCHAR C00a1
ENCODING 65276
SWIDTH 960 0
DWIDTH 16 0
BBX 16 32 0 -8
BITMAP
0003
0003
300F
300F
0F0F
0F0F
0FC3
0FC3
00F3
00F3
0033
0033
0033
0033
0033
0033
3FFF
3FFF
0FFC
0FFC
0000
0000
0000
0000
0000
0000
0000
0000
0000
0000
0000
0000
ENDCHAR
ENDFONT
